<mxfile host="app.diagrams.net" modified="2023-09-25T00:31:29.739Z" agent="Mozilla/5.0 (Windows NT 10.0; Win64; x64) AppleWebKit/537.36 (KHTML, like Gecko) Chrome/116.0.0.0 Safari/537.36" etag="HrR27Yu8WaeHXN9wGjya" version="21.8.2" type="device">
  <diagram name="Page-1" id="DAPd5PoU-QWRH09RoP7T">
    <mxGraphModel dx="2534" dy="758" grid="1" gridSize="10" guides="1" tooltips="1" connect="1" arrows="1" fold="1" page="1" pageScale="1" pageWidth="1100" pageHeight="1700" math="0" shadow="0">
      <root>
        <mxCell id="0" />
        <mxCell id="1" parent="0" />
        <mxCell id="Hp6X0O6zEZHsdkcGwj31-1" value="System Admin / Helpdesk" style="shape=umlActor;verticalLabelPosition=bottom;verticalAlign=top;html=1;outlineConnect=0;fillColor=#000000;" parent="1" vertex="1">
          <mxGeometry x="-80" y="290" width="40" height="60" as="geometry" />
        </mxCell>
        <mxCell id="Hp6X0O6zEZHsdkcGwj31-4" value="" style="endArrow=none;html=1;rounded=0;" parent="1" target="Hp6X0O6zEZHsdkcGwj31-5" edge="1">
          <mxGeometry width="50" height="50" relative="1" as="geometry">
            <mxPoint x="40" y="320" as="sourcePoint" />
            <mxPoint x="250" y="260" as="targetPoint" />
            <Array as="points">
              <mxPoint x="-50" y="320" />
              <mxPoint x="90" y="310" />
            </Array>
          </mxGeometry>
        </mxCell>
        <mxCell id="Hp6X0O6zEZHsdkcGwj31-5" value="" style="ellipse;whiteSpace=wrap;html=1;fillColor=#000000;" parent="1" vertex="1">
          <mxGeometry x="-20" y="270" width="120" height="80" as="geometry" />
        </mxCell>
        <mxCell id="Hp6X0O6zEZHsdkcGwj31-7" value="Login Attempt" style="text;html=1;strokeColor=none;fillColor=none;align=center;verticalAlign=middle;whiteSpace=wrap;rounded=0;fontColor=#FFFFFF;" parent="1" vertex="1">
          <mxGeometry x="10" y="295" width="60" height="30" as="geometry" />
        </mxCell>
        <mxCell id="Hp6X0O6zEZHsdkcGwj31-9" value="" style="ellipse;whiteSpace=wrap;html=1;gradientColor=none;fillColor=#000000;" parent="1" vertex="1">
          <mxGeometry x="275" y="270" width="120" height="80" as="geometry" />
        </mxCell>
        <mxCell id="Hp6X0O6zEZHsdkcGwj31-10" value="Opt Into MFA" style="text;html=1;strokeColor=none;fillColor=none;align=center;verticalAlign=middle;whiteSpace=wrap;rounded=0;fontColor=#FFFFFF;" parent="1" vertex="1">
          <mxGeometry x="300" y="295" width="60" height="30" as="geometry" />
        </mxCell>
        <mxCell id="Hp6X0O6zEZHsdkcGwj31-11" value="" style="endArrow=none;html=1;rounded=0;dashed=1;" parent="1" edge="1">
          <mxGeometry width="50" height="50" relative="1" as="geometry">
            <mxPoint x="380" y="290" as="sourcePoint" />
            <mxPoint x="450" y="250" as="targetPoint" />
          </mxGeometry>
        </mxCell>
        <mxCell id="Hp6X0O6zEZHsdkcGwj31-12" value="" style="endArrow=none;html=1;rounded=0;entryX=0.367;entryY=0.013;entryDx=0;entryDy=0;entryPerimeter=0;" parent="1" edge="1" target="Hp6X0O6zEZHsdkcGwj31-14">
          <mxGeometry width="50" height="50" relative="1" as="geometry">
            <mxPoint x="390" y="325" as="sourcePoint" />
            <mxPoint x="450" y="365" as="targetPoint" />
          </mxGeometry>
        </mxCell>
        <mxCell id="Hp6X0O6zEZHsdkcGwj31-13" value="" style="ellipse;whiteSpace=wrap;html=1;fillColor=#000000;" parent="1" vertex="1">
          <mxGeometry x="450" y="210" width="120" height="80" as="geometry" />
        </mxCell>
        <mxCell id="Hp6X0O6zEZHsdkcGwj31-14" value="" style="ellipse;whiteSpace=wrap;html=1;gradientColor=none;fillColor=#000000;" parent="1" vertex="1">
          <mxGeometry x="410" y="410" width="120" height="80" as="geometry" />
        </mxCell>
        <mxCell id="Hp6X0O6zEZHsdkcGwj31-15" value="Valid Authentication&amp;nbsp;" style="text;html=1;strokeColor=none;fillColor=none;align=center;verticalAlign=middle;whiteSpace=wrap;rounded=0;fontColor=#FFFFFF;" parent="1" vertex="1">
          <mxGeometry x="480" y="235" width="60" height="30" as="geometry" />
        </mxCell>
        <mxCell id="Hp6X0O6zEZHsdkcGwj31-16" value="Invalid Authentication" style="text;html=1;strokeColor=none;fillColor=none;align=center;verticalAlign=middle;whiteSpace=wrap;rounded=0;fontColor=#FFFFFF;" parent="1" vertex="1">
          <mxGeometry x="440" y="435" width="60" height="30" as="geometry" />
        </mxCell>
        <mxCell id="Hp6X0O6zEZHsdkcGwj31-18" value="" style="endArrow=classic;html=1;rounded=0;exitX=0.028;exitY=0.308;exitDx=0;exitDy=0;exitPerimeter=0;" parent="1" edge="1" source="Hp6X0O6zEZHsdkcGwj31-20">
          <mxGeometry width="50" height="50" relative="1" as="geometry">
            <mxPoint x="530" y="460" as="sourcePoint" />
            <mxPoint x="80" y="350" as="targetPoint" />
          </mxGeometry>
        </mxCell>
        <mxCell id="Hp6X0O6zEZHsdkcGwj31-19" value="" style="endArrow=none;html=1;rounded=0;exitX=0.986;exitY=0.413;exitDx=0;exitDy=0;exitPerimeter=0;" parent="1" edge="1" source="Hp6X0O6zEZHsdkcGwj31-20">
          <mxGeometry width="50" height="50" relative="1" as="geometry">
            <mxPoint x="380" y="450" as="sourcePoint" />
            <mxPoint x="420" y="450" as="targetPoint" />
          </mxGeometry>
        </mxCell>
        <mxCell id="Hp6X0O6zEZHsdkcGwj31-20" value="" style="ellipse;whiteSpace=wrap;html=1;fontColor=#000000;strokeColor=#000000;fillColor=#000000;" parent="1" vertex="1">
          <mxGeometry x="220" y="400" width="120" height="80" as="geometry" />
        </mxCell>
        <mxCell id="rUo3hgHBCnOXlDoPaP9Q-17" style="edgeStyle=orthogonalEdgeStyle;rounded=0;orthogonalLoop=1;jettySize=auto;html=1;exitX=0.75;exitY=1;exitDx=0;exitDy=0;" edge="1" parent="1" source="Hp6X0O6zEZHsdkcGwj31-21" target="Hp6X0O6zEZHsdkcGwj31-20">
          <mxGeometry relative="1" as="geometry" />
        </mxCell>
        <mxCell id="Hp6X0O6zEZHsdkcGwj31-21" value="Notification of Unsuccessful Authentication" style="text;html=1;strokeColor=none;fillColor=none;align=center;verticalAlign=middle;whiteSpace=wrap;rounded=0;fontColor=#FFFFFF;" parent="1" vertex="1">
          <mxGeometry x="250" y="420" width="60" height="30" as="geometry" />
        </mxCell>
        <mxCell id="Hp6X0O6zEZHsdkcGwj31-22" value="" style="endArrow=none;html=1;rounded=0;entryX=0;entryY=0.5;entryDx=0;entryDy=0;" parent="1" edge="1" target="Hp6X0O6zEZHsdkcGwj31-23">
          <mxGeometry width="50" height="50" relative="1" as="geometry">
            <mxPoint x="570" y="249.57999999999998" as="sourcePoint" />
            <mxPoint x="650" y="249.57999999999998" as="targetPoint" />
          </mxGeometry>
        </mxCell>
        <mxCell id="Hp6X0O6zEZHsdkcGwj31-23" value="" style="ellipse;whiteSpace=wrap;html=1;fillColor=#000000;" parent="1" vertex="1">
          <mxGeometry x="680" y="210" width="120" height="80" as="geometry" />
        </mxCell>
        <mxCell id="Hp6X0O6zEZHsdkcGwj31-24" value="Login Successful" style="text;html=1;strokeColor=none;fillColor=none;align=center;verticalAlign=middle;whiteSpace=wrap;rounded=0;fontColor=#FFFFFF;" parent="1" vertex="1">
          <mxGeometry x="710" y="235" width="60" height="30" as="geometry" />
        </mxCell>
        <mxCell id="rUo3hgHBCnOXlDoPaP9Q-12" value="" style="endArrow=none;dashed=1;html=1;rounded=0;" edge="1" parent="1">
          <mxGeometry width="50" height="50" relative="1" as="geometry">
            <mxPoint x="100" y="309.58" as="sourcePoint" />
            <mxPoint x="160" y="309.58" as="targetPoint" />
          </mxGeometry>
        </mxCell>
        <mxCell id="rUo3hgHBCnOXlDoPaP9Q-13" value="&amp;lt;&amp;lt;included&amp;gt;&amp;gt;" style="text;html=1;strokeColor=none;fillColor=none;align=center;verticalAlign=middle;whiteSpace=wrap;rounded=0;" vertex="1" parent="1">
          <mxGeometry x="170" y="295" width="60" height="30" as="geometry" />
        </mxCell>
        <mxCell id="rUo3hgHBCnOXlDoPaP9Q-16" value="" style="endArrow=none;dashed=1;html=1;rounded=0;" edge="1" parent="1" target="Hp6X0O6zEZHsdkcGwj31-10">
          <mxGeometry width="50" height="50" relative="1" as="geometry">
            <mxPoint x="240" y="310" as="sourcePoint" />
            <mxPoint x="290" y="260" as="targetPoint" />
          </mxGeometry>
        </mxCell>
        <mxCell id="rUo3hgHBCnOXlDoPaP9Q-19" style="edgeStyle=orthogonalEdgeStyle;rounded=0;orthogonalLoop=1;jettySize=auto;html=1;exitX=0.5;exitY=1;exitDx=0;exitDy=0;entryX=0;entryY=0.75;entryDx=0;entryDy=0;" edge="1" parent="1" source="Hp6X0O6zEZHsdkcGwj31-24" target="Hp6X0O6zEZHsdkcGwj31-24">
          <mxGeometry relative="1" as="geometry" />
        </mxCell>
        <mxCell id="rUo3hgHBCnOXlDoPaP9Q-20" value="" style="endArrow=none;dashed=1;html=1;rounded=0;" edge="1" parent="1">
          <mxGeometry width="50" height="50" relative="1" as="geometry">
            <mxPoint x="60" y="270" as="sourcePoint" />
            <mxPoint x="170" y="170" as="targetPoint" />
          </mxGeometry>
        </mxCell>
        <mxCell id="rUo3hgHBCnOXlDoPaP9Q-21" value="&amp;lt;&amp;lt;Included&amp;gt;&amp;gt;" style="text;html=1;strokeColor=none;fillColor=none;align=center;verticalAlign=middle;whiteSpace=wrap;rounded=0;" vertex="1" parent="1">
          <mxGeometry x="150" y="140" width="60" height="30" as="geometry" />
        </mxCell>
        <mxCell id="rUo3hgHBCnOXlDoPaP9Q-22" value="" style="endArrow=none;dashed=1;html=1;rounded=0;" edge="1" parent="1">
          <mxGeometry width="50" height="50" relative="1" as="geometry">
            <mxPoint x="200" y="140" as="sourcePoint" />
            <mxPoint x="250" y="90" as="targetPoint" />
          </mxGeometry>
        </mxCell>
        <mxCell id="rUo3hgHBCnOXlDoPaP9Q-23" value="" style="ellipse;whiteSpace=wrap;html=1;fillColor=#000000;" vertex="1" parent="1">
          <mxGeometry x="240" y="40" width="120" height="80" as="geometry" />
        </mxCell>
        <mxCell id="rUo3hgHBCnOXlDoPaP9Q-24" value="Opt Out of MFA" style="text;html=1;align=center;verticalAlign=middle;whiteSpace=wrap;rounded=0;fontColor=#FFFFFF;" vertex="1" parent="1">
          <mxGeometry x="270" y="65" width="60" height="30" as="geometry" />
        </mxCell>
        <mxCell id="rUo3hgHBCnOXlDoPaP9Q-25" value="" style="endArrow=none;html=1;rounded=0;" edge="1" parent="1" target="Hp6X0O6zEZHsdkcGwj31-23">
          <mxGeometry width="50" height="50" relative="1" as="geometry">
            <mxPoint x="360" y="80" as="sourcePoint" />
            <mxPoint x="410" y="30" as="targetPoint" />
          </mxGeometry>
        </mxCell>
        <mxCell id="rUo3hgHBCnOXlDoPaP9Q-26" value="Ransomware Attacker" style="shape=umlActor;verticalLabelPosition=bottom;verticalAlign=top;html=1;outlineConnect=0;" vertex="1" parent="1">
          <mxGeometry x="1120" y="280" width="30" height="60" as="geometry" />
        </mxCell>
        <mxCell id="rUo3hgHBCnOXlDoPaP9Q-27" value="Password Hash/ Key Logger" style="ellipse;whiteSpace=wrap;html=1;" vertex="1" parent="1">
          <mxGeometry x="970" y="60" width="120" height="80" as="geometry" />
        </mxCell>
        <mxCell id="rUo3hgHBCnOXlDoPaP9Q-28" value="Lack of Encryption / SMS Interception" style="ellipse;whiteSpace=wrap;html=1;" vertex="1" parent="1">
          <mxGeometry x="970" y="265" width="120" height="80" as="geometry" />
        </mxCell>
        <mxCell id="rUo3hgHBCnOXlDoPaP9Q-29" value="Sim Swap" style="ellipse;whiteSpace=wrap;html=1;" vertex="1" parent="1">
          <mxGeometry x="970" y="450" width="120" height="80" as="geometry" />
        </mxCell>
        <mxCell id="rUo3hgHBCnOXlDoPaP9Q-30" value="" style="endArrow=none;html=1;rounded=0;" edge="1" parent="1" source="rUo3hgHBCnOXlDoPaP9Q-27">
          <mxGeometry width="50" height="50" relative="1" as="geometry">
            <mxPoint x="1060" y="190" as="sourcePoint" />
            <mxPoint x="1110" y="290" as="targetPoint" />
          </mxGeometry>
        </mxCell>
        <mxCell id="rUo3hgHBCnOXlDoPaP9Q-31" value="" style="endArrow=none;html=1;rounded=0;" edge="1" parent="1" source="rUo3hgHBCnOXlDoPaP9Q-28">
          <mxGeometry width="50" height="50" relative="1" as="geometry">
            <mxPoint x="1060" y="360" as="sourcePoint" />
            <mxPoint x="1110" y="310" as="targetPoint" />
          </mxGeometry>
        </mxCell>
        <mxCell id="rUo3hgHBCnOXlDoPaP9Q-32" value="" style="endArrow=none;html=1;rounded=0;" edge="1" parent="1">
          <mxGeometry width="50" height="50" relative="1" as="geometry">
            <mxPoint x="1060" y="450" as="sourcePoint" />
            <mxPoint x="1110" y="370" as="targetPoint" />
          </mxGeometry>
        </mxCell>
        <mxCell id="rUo3hgHBCnOXlDoPaP9Q-33" value="" style="endArrow=none;dashed=1;html=1;dashPattern=1 3;strokeWidth=2;rounded=0;" edge="1" parent="1">
          <mxGeometry width="50" height="50" relative="1" as="geometry">
            <mxPoint x="350" y="270" as="sourcePoint" />
            <mxPoint x="560" y="150" as="targetPoint" />
          </mxGeometry>
        </mxCell>
        <mxCell id="rUo3hgHBCnOXlDoPaP9Q-34" value="&amp;lt;&amp;lt;prevents&amp;gt;&amp;gt;" style="text;html=1;strokeColor=none;fillColor=none;align=center;verticalAlign=middle;whiteSpace=wrap;rounded=0;" vertex="1" parent="1">
          <mxGeometry x="550" y="120" width="60" height="30" as="geometry" />
        </mxCell>
        <mxCell id="rUo3hgHBCnOXlDoPaP9Q-35" value="" style="endArrow=none;dashed=1;html=1;dashPattern=1 3;strokeWidth=2;rounded=0;entryX=0;entryY=0.75;entryDx=0;entryDy=0;entryPerimeter=0;" edge="1" parent="1" target="rUo3hgHBCnOXlDoPaP9Q-27">
          <mxGeometry width="50" height="50" relative="1" as="geometry">
            <mxPoint x="620" y="130" as="sourcePoint" />
            <mxPoint x="670" y="80" as="targetPoint" />
          </mxGeometry>
        </mxCell>
        <mxCell id="rUo3hgHBCnOXlDoPaP9Q-36" value="" style="endArrow=none;dashed=1;html=1;rounded=0;entryX=-0.017;entryY=0.338;entryDx=0;entryDy=0;entryPerimeter=0;" edge="1" parent="1" target="rUo3hgHBCnOXlDoPaP9Q-27">
          <mxGeometry width="50" height="50" relative="1" as="geometry">
            <mxPoint x="740" y="80" as="sourcePoint" />
            <mxPoint x="940" y="40" as="targetPoint" />
          </mxGeometry>
        </mxCell>
        <mxCell id="rUo3hgHBCnOXlDoPaP9Q-37" value="&amp;lt;&amp;lt;threatens&amp;gt;&amp;gt;" style="text;html=1;strokeColor=none;fillColor=none;align=center;verticalAlign=middle;whiteSpace=wrap;rounded=0;" vertex="1" parent="1">
          <mxGeometry x="670" y="65" width="60" height="30" as="geometry" />
        </mxCell>
        <mxCell id="rUo3hgHBCnOXlDoPaP9Q-38" value="" style="endArrow=none;dashed=1;html=1;rounded=0;" edge="1" parent="1">
          <mxGeometry width="50" height="50" relative="1" as="geometry">
            <mxPoint x="360" y="80" as="sourcePoint" />
            <mxPoint x="660" y="80" as="targetPoint" />
          </mxGeometry>
        </mxCell>
        <mxCell id="rUo3hgHBCnOXlDoPaP9Q-39" value="" style="endArrow=none;dashed=1;html=1;rounded=0;" edge="1" parent="1">
          <mxGeometry width="50" height="50" relative="1" as="geometry">
            <mxPoint x="770" y="320" as="sourcePoint" />
            <mxPoint x="970" y="310" as="targetPoint" />
          </mxGeometry>
        </mxCell>
        <mxCell id="rUo3hgHBCnOXlDoPaP9Q-40" value="&amp;lt;&amp;lt;threatens&amp;gt;&amp;gt;" style="text;html=1;strokeColor=none;fillColor=none;align=center;verticalAlign=middle;whiteSpace=wrap;rounded=0;" vertex="1" parent="1">
          <mxGeometry x="700" y="305" width="60" height="30" as="geometry" />
        </mxCell>
        <mxCell id="rUo3hgHBCnOXlDoPaP9Q-41" value="" style="endArrow=none;dashed=1;html=1;rounded=0;exitX=1;exitY=0.5;exitDx=0;exitDy=0;" edge="1" parent="1" source="Hp6X0O6zEZHsdkcGwj31-9">
          <mxGeometry width="50" height="50" relative="1" as="geometry">
            <mxPoint x="640" y="360" as="sourcePoint" />
            <mxPoint x="690" y="320" as="targetPoint" />
          </mxGeometry>
        </mxCell>
        <mxCell id="rUo3hgHBCnOXlDoPaP9Q-42" value="" style="endArrow=none;dashed=1;html=1;rounded=0;entryX=0;entryY=0.5;entryDx=0;entryDy=0;" edge="1" parent="1" target="rUo3hgHBCnOXlDoPaP9Q-29">
          <mxGeometry width="50" height="50" relative="1" as="geometry">
            <mxPoint x="760" y="380" as="sourcePoint" />
            <mxPoint x="970" y="460" as="targetPoint" />
          </mxGeometry>
        </mxCell>
        <mxCell id="rUo3hgHBCnOXlDoPaP9Q-43" value="&amp;lt;&amp;lt;threatens&amp;gt;&amp;gt;" style="text;html=1;strokeColor=none;fillColor=none;align=center;verticalAlign=middle;whiteSpace=wrap;rounded=0;" vertex="1" parent="1">
          <mxGeometry x="700" y="360" width="60" height="30" as="geometry" />
        </mxCell>
        <mxCell id="rUo3hgHBCnOXlDoPaP9Q-44" value="" style="endArrow=none;dashed=1;html=1;rounded=0;" edge="1" parent="1" source="Hp6X0O6zEZHsdkcGwj31-13">
          <mxGeometry width="50" height="50" relative="1" as="geometry">
            <mxPoint x="660" y="410" as="sourcePoint" />
            <mxPoint x="710" y="360" as="targetPoint" />
          </mxGeometry>
        </mxCell>
        <mxCell id="rUo3hgHBCnOXlDoPaP9Q-47" value="" style="endArrow=none;dashed=1;html=1;dashPattern=1 3;strokeWidth=2;rounded=0;" edge="1" parent="1">
          <mxGeometry width="50" height="50" relative="1" as="geometry">
            <mxPoint x="620" y="440" as="sourcePoint" />
            <mxPoint x="400" y="320" as="targetPoint" />
          </mxGeometry>
        </mxCell>
        <mxCell id="rUo3hgHBCnOXlDoPaP9Q-48" value="&amp;lt;&amp;lt;includes&amp;gt;&amp;gt;" style="text;html=1;strokeColor=none;fillColor=none;align=center;verticalAlign=middle;whiteSpace=wrap;rounded=0;" vertex="1" parent="1">
          <mxGeometry x="590" y="435" width="60" height="30" as="geometry" />
        </mxCell>
        <mxCell id="rUo3hgHBCnOXlDoPaP9Q-49" value="" style="endArrow=none;dashed=1;html=1;rounded=0;" edge="1" parent="1">
          <mxGeometry width="50" height="50" relative="1" as="geometry">
            <mxPoint x="680" y="520" as="sourcePoint" />
            <mxPoint x="640" y="460" as="targetPoint" />
          </mxGeometry>
        </mxCell>
        <mxCell id="rUo3hgHBCnOXlDoPaP9Q-50" value="asd" style="ellipse;whiteSpace=wrap;html=1;fontColor=#000000;fillColor=#000000;" vertex="1" parent="1">
          <mxGeometry x="620" y="520" width="120" height="80" as="geometry" />
        </mxCell>
        <mxCell id="rUo3hgHBCnOXlDoPaP9Q-51" value="Encrypt Ciommunications&amp;nbsp;" style="text;html=1;strokeColor=none;fillColor=none;align=center;verticalAlign=middle;whiteSpace=wrap;rounded=0;fontColor=#FFFFFF;" vertex="1" parent="1">
          <mxGeometry x="650" y="545" width="60" height="30" as="geometry" />
        </mxCell>
        <mxCell id="rUo3hgHBCnOXlDoPaP9Q-52" value="" style="endArrow=none;dashed=1;html=1;rounded=0;" edge="1" parent="1">
          <mxGeometry width="50" height="50" relative="1" as="geometry">
            <mxPoint x="990" y="360" as="sourcePoint" />
            <mxPoint x="1010" y="340" as="targetPoint" />
          </mxGeometry>
        </mxCell>
        <mxCell id="rUo3hgHBCnOXlDoPaP9Q-53" value="" style="ellipse;whiteSpace=wrap;html=1;" vertex="1" parent="1">
          <mxGeometry x="830" y="325" width="120" height="80" as="geometry" />
        </mxCell>
        <mxCell id="rUo3hgHBCnOXlDoPaP9Q-54" value="Exploit Weak Crypto" style="text;html=1;strokeColor=none;fillColor=none;align=center;verticalAlign=middle;whiteSpace=wrap;rounded=0;" vertex="1" parent="1">
          <mxGeometry x="850" y="350" width="60" height="30" as="geometry" />
        </mxCell>
        <mxCell id="rUo3hgHBCnOXlDoPaP9Q-55" value="" style="endArrow=none;dashed=1;html=1;rounded=0;" edge="1" parent="1">
          <mxGeometry width="50" height="50" relative="1" as="geometry">
            <mxPoint x="730" y="580" as="sourcePoint" />
            <mxPoint x="760" y="580" as="targetPoint" />
          </mxGeometry>
        </mxCell>
        <mxCell id="rUo3hgHBCnOXlDoPaP9Q-57" value="&amp;lt;&amp;lt;includes&amp;gt;&amp;gt;" style="text;html=1;strokeColor=none;fillColor=none;align=center;verticalAlign=middle;whiteSpace=wrap;rounded=0;" vertex="1" parent="1">
          <mxGeometry x="960" y="350" width="60" height="30" as="geometry" />
        </mxCell>
        <mxCell id="rUo3hgHBCnOXlDoPaP9Q-58" value="" style="endArrow=none;dashed=1;html=1;rounded=0;exitX=1;exitY=1;exitDx=0;exitDy=0;" edge="1" parent="1" source="rUo3hgHBCnOXlDoPaP9Q-53">
          <mxGeometry width="50" height="50" relative="1" as="geometry">
            <mxPoint x="930" y="420" as="sourcePoint" />
            <mxPoint x="980" y="370" as="targetPoint" />
          </mxGeometry>
        </mxCell>
        <mxCell id="rUo3hgHBCnOXlDoPaP9Q-60" value="" style="endArrow=none;dashed=1;html=1;rounded=0;" edge="1" parent="1">
          <mxGeometry width="50" height="50" relative="1" as="geometry">
            <mxPoint x="810" y="450" as="sourcePoint" />
            <mxPoint x="860" y="400" as="targetPoint" />
          </mxGeometry>
        </mxCell>
        <mxCell id="rUo3hgHBCnOXlDoPaP9Q-61" value="&amp;lt;&amp;lt;threatens&amp;gt;&amp;gt;" style="text;html=1;strokeColor=none;fillColor=none;align=center;verticalAlign=middle;whiteSpace=wrap;rounded=0;" vertex="1" parent="1">
          <mxGeometry x="770" y="450" width="60" height="30" as="geometry" />
        </mxCell>
        <mxCell id="rUo3hgHBCnOXlDoPaP9Q-62" value="" style="endArrow=none;dashed=1;html=1;rounded=0;" edge="1" parent="1">
          <mxGeometry width="50" height="50" relative="1" as="geometry">
            <mxPoint x="730" y="530" as="sourcePoint" />
            <mxPoint x="780" y="480" as="targetPoint" />
          </mxGeometry>
        </mxCell>
        <mxCell id="rUo3hgHBCnOXlDoPaP9Q-63" value="" style="ellipse;whiteSpace=wrap;html=1;fillColor=#000000;" vertex="1" parent="1">
          <mxGeometry x="840" y="542.5" width="120" height="80" as="geometry" />
        </mxCell>
        <mxCell id="rUo3hgHBCnOXlDoPaP9Q-64" value="Stronger Encryption Algorithm" style="text;html=1;strokeColor=none;fillColor=none;align=center;verticalAlign=middle;whiteSpace=wrap;rounded=0;fontColor=#FFFFFF;" vertex="1" parent="1">
          <mxGeometry x="870" y="565" width="60" height="30" as="geometry" />
        </mxCell>
        <mxCell id="rUo3hgHBCnOXlDoPaP9Q-65" value="&amp;lt;&amp;lt;includes&amp;gt;&amp;gt;" style="text;html=1;strokeColor=none;fillColor=none;align=center;verticalAlign=middle;whiteSpace=wrap;rounded=0;" vertex="1" parent="1">
          <mxGeometry x="760" y="565" width="60" height="35" as="geometry" />
        </mxCell>
        <mxCell id="rUo3hgHBCnOXlDoPaP9Q-66" value="" style="endArrow=none;dashed=1;html=1;rounded=0;exitX=1;exitY=0.5;exitDx=0;exitDy=0;" edge="1" parent="1" source="rUo3hgHBCnOXlDoPaP9Q-65" target="rUo3hgHBCnOXlDoPaP9Q-63">
          <mxGeometry width="50" height="50" relative="1" as="geometry">
            <mxPoint x="810" y="610" as="sourcePoint" />
            <mxPoint x="860" y="560" as="targetPoint" />
          </mxGeometry>
        </mxCell>
        <mxCell id="rUo3hgHBCnOXlDoPaP9Q-67" value="" style="endArrow=none;dashed=1;html=1;rounded=0;" edge="1" parent="1">
          <mxGeometry width="50" height="50" relative="1" as="geometry">
            <mxPoint x="890" y="550" as="sourcePoint" />
            <mxPoint x="890" y="520" as="targetPoint" />
          </mxGeometry>
        </mxCell>
        <mxCell id="rUo3hgHBCnOXlDoPaP9Q-69" value="&amp;lt;&amp;lt;prevents&amp;gt;&amp;gt;" style="text;html=1;strokeColor=none;fillColor=none;align=center;verticalAlign=middle;whiteSpace=wrap;rounded=0;" vertex="1" parent="1">
          <mxGeometry x="860" y="490" width="60" height="30" as="geometry" />
        </mxCell>
        <mxCell id="rUo3hgHBCnOXlDoPaP9Q-70" value="" style="endArrow=none;dashed=1;html=1;rounded=0;" edge="1" parent="1">
          <mxGeometry width="50" height="50" relative="1" as="geometry">
            <mxPoint x="890" y="500" as="sourcePoint" />
            <mxPoint x="890" y="410" as="targetPoint" />
          </mxGeometry>
        </mxCell>
      </root>
    </mxGraphModel>
  </diagram>
</mxfile>
